<svg xmlns="http://www.w3.org/2000/svg" viewBox="0 0 1920 1080">
  <defs>
    <!-- 主渐变背景 -->
    <linearGradient id="mainGradient" x1="0%" y1="0%" x2="100%" y2="100%">
      <stop offset="0%" style="stop-color:#667eea;stop-opacity:1" />
      <stop offset="100%" style="stop-color:#764ba2;stop-opacity:1" />
    </linearGradient>
    
    <!-- 装饰性渐变 -->
    <radialGradient id="decorGradient" cx="80%" cy="20%" r="60%">
      <stop offset="0%" style="stop-color:#ffffff;stop-opacity:0.1" />
      <stop offset="100%" style="stop-color:#ffffff;stop-opacity:0" />
    </radialGradient>
    
    <!-- 几何图形渐变 -->
    <linearGradient id="shapeGradient" x1="0%" y1="0%" x2="100%" y2="0%">
      <stop offset="0%" style="stop-color:#ffffff;stop-opacity:0.05" />
      <stop offset="100%" style="stop-color:#ffffff;stop-opacity:0.15" />
    </linearGradient>
  </defs>
  
  <!-- 主背景 -->
  <rect width="100%" height="100%" fill="url(#mainGradient)"/>
  
  <!-- 装饰性光晕 -->
  <rect width="100%" height="100%" fill="url(#decorGradient)"/>
  
  <!-- 几何装饰元素 -->
  <g opacity="0.1">
    <!-- 大圆形 -->
    <circle cx="1600" cy="200" r="300" fill="#ffffff"/>
    
    <!-- 中等圆形 -->
    <circle cx="200" cy="800" r="150" fill="#ffffff"/>
    
    <!-- 小圆形 -->
    <circle cx="1400" cy="900" r="80" fill="#ffffff"/>
    
    <!-- 三角形装饰 -->
    <polygon points="100,100 300,100 200,300" fill="url(#shapeGradient)"/>
    
    <!-- 菱形装饰 -->
    <polygon points="1700,600 1800,700 1700,800 1600,700" fill="url(#shapeGradient)"/>
  </g>
  
  <!-- 微妙的网格线 -->
  <g stroke="#ffffff" stroke-width="1" opacity="0.03" fill="none">
    <line x1="0" y1="270" x2="1920" y2="270"/>
    <line x1="0" y1="540" x2="1920" y2="540"/>
    <line x1="0" y1="810" x2="1920" y2="810"/>
    <line x1="480" y1="0" x2="480" y2="1080"/>
    <line x1="960" y1="0" x2="960" y2="1080"/>
    <line x1="1440" y1="0" x2="1440" y2="1080"/>
  </g>
</svg>